<?xml version="1.0" encoding="utf-8"?>
<!-- Generator: Adobe Illustrator 19.2.1, SVG Export Plug-In . SVG Version: 6.00 Build 0)  -->
<svg version="1.1" id="layer" xmlns="http://www.w3.org/2000/svg" xmlns:xlink="http://www.w3.org/1999/xlink" x="0px" y="0px"
	 viewBox="0 0 652 652" style="enable-background:new 0 0 652 652;" xml:space="preserve">
<path d="M589.9,410.2L501,165.5l-0.1-0.2h-1.8l-18.3,50.3l-33.3,91.6l-0.1-0.1c-11.6-10.2-27.8-16.6-48.4-18.9l-6.3-0.6l6.2-0.8
	c33.8-6.1,56.6-27.5,56.6-53.2c0-35.3-33.2-60-80.8-60h-99v1.8h28.8v182.5l-69.9-192.3l-0.1-0.2H233l-18.3,50.3l-70.6,194l-0.4,0.1
	c-1.2,0.1-2.4,0.3-3.6,0.4c-1.8,0.1-3.5,0.2-5.3,0.2H63.4L199,175.4l1-1.8H34.2v72.7h1.8c0.3-35.4,20.9-70.9,66.5-70.9h54.9
	L20.7,412h184.1v-69.6H203c-0.2,30.8-17.7,60.1-55.8,66.8l-1.2,0.2l29-79.6h81.1l29.2,80.5h-28.8v1.8h113.2v-1.8h-29V288.8h33.4
	c34,0,53.5,15.2,53.5,41.7V352c0,2.4,0.2,5.8,0.3,8.7v0.1l-18,49.3h-23.5v1.8h48.6v-1.8h-23.2l16.4-44.9c0,0.4,0.1,0.7,0.1,0.7
	l0.5,4l0.4,2.7c2.7,16.6,9.1,28.7,18.8,36.2l1.4,1c7.4,5.2,16.6,7.8,27.4,7.8c14.3,0,23.8-3.6,31.6-11.9l-1-1
	c-7.2,6.7-13.3,9.4-20.9,9.4c-13,0-19.8-15.7-19.8-31.2v-30.2c0.1-7.5-1.1-14.9-3.5-22l-0.3-0.9v0h59.3l29.2,80.5h-28.8v1.8h97.9
	v-1.8L589.9,410.2z M175.6,328l40-109.8L255.5,328H175.6z M340.8,287.1V175.4h25.5c34.1,0,52.1,20.3,52.1,58.6
	c0,40.7-10.3,53.2-44.2,53.2H340.8z M462.3,328l-0.2-0.4c-2.6-6.4-6.5-12.3-11.3-17.3l-1.7-1.7l-0.2-0.2l32.8-90.3L521.7,328H462.3z
	"/>
<path d="M212.1,449.5l3.7-10.3L215,439c-0.2,0.4-0.5,0.8-0.9,1.1c-0.4,0.3-0.8,0.4-1.4,0.4c-0.5,0-1.1-0.1-1.7-0.3
	c-0.6-0.2-1.2-0.4-1.9-0.7c-0.7-0.3-1.5-0.5-2.4-0.7c-0.9-0.2-1.9-0.3-3.1-0.3c-1.6,0-3.2,0.3-4.9,0.9c-1.7,0.6-3.4,1.4-5.1,2.5
	c-1.6,1.1-3.2,2.4-4.7,3.8s-2.8,3.2-4,5c-1.1,1.8-2,3.7-2.7,5.7c-0.6,2-1,4.1-1,6.3c0,1.9,0.2,3.8,0.6,5.6c0.5,1.8,1.2,3.4,2.2,4.9
	c1,1.4,2.4,2.5,4,3.4c1.7,0.9,3.7,1.3,6.1,1.3c2,0,3.7-0.4,5.2-1.1c1.5-0.7,2.7-1.6,3.7-2.6c1-1,1.8-1.9,2.4-2.8
	c0.6-1,1-1.7,1.2-2.1l-0.7-0.4c-0.4,0.8-1,1.7-1.7,2.6c-0.6,1-1.4,1.9-2.4,2.7c-1,0.8-2.1,1.5-3.3,2.1c-1.2,0.6-2.7,0.9-4.3,0.9
	c-2.9,0-5.1-0.7-6.7-2.1c-1.6-1.4-2.4-3.6-2.4-6.5c0-1.4,0.2-3.1,0.5-5.1c0.4-2,0.9-4.1,1.7-6.3c0.7-2.2,1.6-4.3,2.7-6.5
	c1.1-2.2,2.3-4.1,3.6-5.8c1.4-1.7,2.8-3.1,4.4-4.2c1.6-1.1,3.3-1.6,5.2-1.6c1.1,0,2.2,0.1,3.2,0.4c1,0.2,1.9,0.6,2.6,1.2
	c0.7,0.5,1.3,1.2,1.8,2.1c0.4,0.8,0.6,1.8,0.6,2.9c0,0.7,0,1.4-0.1,2.1c-0.1,0.7-0.1,1.2-0.2,1.6H212.1z M220.3,468.8
	c0-1.5,0.2-3.3,0.5-5.4c0.4-2.1,0.9-4.2,1.7-6.4c0.7-2.2,1.6-4.4,2.7-6.5c1.1-2.1,2.3-4,3.7-5.7c1.4-1.7,2.9-3,4.6-4.1
	c1.7-1,3.6-1.6,5.6-1.6c2.9,0,5,0.8,6.3,2.3c1.3,1.5,2,3.7,2,6.5c0,1.4-0.2,3-0.5,5c-0.3,2-0.8,4-1.5,6.2c-0.6,2.2-1.5,4.3-2.5,6.5
	s-2.2,4.1-3.6,5.8c-1.4,1.7-2.9,3.1-4.7,4.2c-1.7,1.1-3.6,1.6-5.7,1.6c-1.7,0-3.1-0.2-4.2-0.7c-1.1-0.5-1.9-1.1-2.6-1.8
	c-0.6-0.8-1.1-1.7-1.3-2.7C220.4,470.9,220.3,469.9,220.3,468.8z M216.2,462.6c0,2.5,0.3,4.7,0.9,6.6c0.6,1.9,1.4,3.5,2.5,4.8
	c1.1,1.3,2.4,2.3,3.8,2.9c1.5,0.6,3.1,1,4.9,1c2,0,3.9-0.3,5.8-1c1.9-0.6,3.7-1.5,5.5-2.7c1.7-1.1,3.3-2.5,4.8-4
	c1.5-1.5,2.7-3.2,3.7-4.9c1.1-1.8,1.9-3.6,2.5-5.6c0.6-2,0.9-3.9,0.9-5.8c0-1.8-0.2-3.6-0.6-5.4c-0.4-1.9-1.1-3.5-2.1-5
	c-1-1.5-2.2-2.7-3.8-3.6c-1.6-1-3.5-1.4-5.8-1.4c-1.8,0-3.6,0.3-5.4,1c-1.8,0.6-3.6,1.5-5.3,2.6c-1.7,1.1-3.3,2.4-4.8,4
	c-1.5,1.5-2.8,3.2-3.9,5c-1.1,1.8-1.9,3.7-2.6,5.7C216.5,458.6,216.2,460.6,216.2,462.6z M268.8,439.9l-13.1,36.6h-5.5l-0.2,0.7H281
	l3.7-10.5H284c-0.3,0.5-0.8,1.4-1.5,2.5c-0.6,1.1-1.4,2.2-2.4,3.3c-0.9,1.1-2,2-3.2,2.8c-1.2,0.8-2.5,1.2-3.9,1.2h-12.5l13.1-36.6
	h5.6l0.2-0.7h-16.6l-0.2,0.7H268.8z M302.5,439.9l-13.1,36.6h-5.5l-0.2,0.7h31.1l3.7-10.5h-0.7c-0.3,0.5-0.8,1.4-1.5,2.5
	c-0.6,1.1-1.4,2.2-2.4,3.3c-0.9,1.1-2,2-3.2,2.8c-1.2,0.8-2.5,1.2-3.9,1.2h-12.5l13.1-36.6h5.6l0.2-0.7h-16.6l-0.2,0.7H302.5z
	 M336.1,439.9L323,476.5h-5.5l-0.2,0.7h31.1l3.7-10.5h-0.7c-0.3,0.5-0.7,1.3-1.4,2.4c-0.6,1.1-1.4,2.2-2.4,3.3c-0.9,1.1-2,2-3.3,2.8
	c-1.2,0.8-2.5,1.2-4,1.2h-12.5l6.9-19.3h3.6c1.4,0,2.4,0.4,3.2,1.1c0.8,0.7,1.2,1.7,1.2,3c0,0.7-0.1,1.4-0.2,2.1
	c-0.1,0.7-0.3,1.3-0.5,1.8h0.7l5.6-15.6h-0.7c-0.2,0.3-0.5,0.9-0.9,1.6c-0.4,0.7-0.9,1.5-1.6,2.3c-0.6,0.7-1.4,1.4-2.2,2
	c-0.9,0.6-1.9,0.9-3,0.9h-5l5.9-16.5h11.3c1.7,0,2.9,0.4,3.4,1.3c0.6,0.8,0.9,1.9,0.9,3.2c0,0.7-0.1,1.4-0.2,2.1
	c-0.1,0.7-0.3,1.3-0.4,1.7h0.7l3.3-9.1h-29.7l-0.2,0.7H336.1z M392.4,449.5l3.7-10.3l-0.8-0.2c-0.2,0.4-0.5,0.8-0.9,1.1
	c-0.4,0.3-0.8,0.4-1.4,0.4c-0.5,0-1.1-0.1-1.7-0.3c-0.6-0.2-1.2-0.4-1.9-0.7c-0.7-0.3-1.5-0.5-2.4-0.7c-0.9-0.2-1.9-0.3-3.1-0.3
	c-1.6,0-3.2,0.3-4.9,0.9c-1.7,0.6-3.4,1.4-5.1,2.5c-1.6,1.1-3.2,2.4-4.7,3.8c-1.5,1.5-2.8,3.2-4,5c-1.1,1.8-2,3.7-2.7,5.7
	c-0.6,2-1,4.1-1,6.3c0,1.9,0.2,3.8,0.6,5.6c0.5,1.8,1.2,3.4,2.2,4.9c1,1.4,2.4,2.5,4,3.4c1.7,0.9,3.7,1.3,6.1,1.3
	c2,0,3.7-0.4,5.2-1.1c1.5-0.7,2.7-1.6,3.7-2.6c1-1,1.8-1.9,2.4-2.8c0.6-1,1-1.7,1.2-2.1l-0.7-0.4c-0.4,0.8-1,1.7-1.7,2.6
	c-0.6,1-1.4,1.9-2.4,2.7c-1,0.8-2.1,1.5-3.3,2.1c-1.2,0.6-2.7,0.9-4.3,0.9c-2.9,0-5.1-0.7-6.7-2.1c-1.6-1.4-2.4-3.6-2.4-6.5
	c0-1.4,0.2-3.1,0.5-5.1c0.4-2,0.9-4.1,1.7-6.3c0.7-2.2,1.6-4.3,2.7-6.5c1.1-2.2,2.3-4.1,3.6-5.8c1.4-1.7,2.8-3.1,4.4-4.2
	s3.3-1.6,5.2-1.6c1.1,0,2.2,0.1,3.2,0.4c1,0.2,1.9,0.6,2.6,1.2c0.7,0.5,1.3,1.2,1.8,2.1c0.4,0.8,0.6,1.8,0.6,2.9
	c0,0.7,0,1.4-0.1,2.1c-0.1,0.7-0.1,1.2-0.2,1.6H392.4z M415.2,439.9l-13.1,36.6h-5.6l-0.2,0.7h16.5l0.2-0.7h-6.1l13.1-36.6h5.3
	c1.8,0,3.1,0.5,3.8,1.4c0.7,0.9,1.1,2.1,1.1,3.4c0,0.9,0,1.7-0.1,2.6c-0.1,0.9-0.2,1.6-0.4,2.4h0.7l3.7-10.5H402l-3.7,10.5h0.7
	c0.3-0.5,0.8-1.3,1.4-2.4c0.6-1.1,1.4-2.2,2.4-3.3c0.9-1.1,2-2.1,3.2-2.9c1.2-0.8,2.5-1.2,4-1.2H415.2z M425.7,476.5l-0.2,0.7h16.4
	l0.2-0.7H436l13.1-36.6h5.6l0.2-0.7h-16.6l-0.2,0.7h6.1l-13.2,36.6H425.7z M457.9,468.8c0-1.5,0.2-3.3,0.5-5.4
	c0.4-2.1,0.9-4.2,1.7-6.4c0.7-2.2,1.6-4.4,2.7-6.5c1.1-2.1,2.3-4,3.7-5.7c1.4-1.7,2.9-3,4.6-4.1c1.7-1,3.6-1.6,5.6-1.6
	c2.9,0,5,0.8,6.3,2.3c1.3,1.5,2,3.7,2,6.5c0,1.4-0.2,3-0.5,5c-0.3,2-0.8,4-1.5,6.2c-0.6,2.2-1.5,4.3-2.5,6.5c-1,2.1-2.2,4.1-3.6,5.8
	c-1.4,1.7-2.9,3.1-4.7,4.2c-1.7,1.1-3.6,1.6-5.7,1.6c-1.7,0-3.1-0.2-4.2-0.7c-1.1-0.5-1.9-1.1-2.6-1.8c-0.6-0.8-1.1-1.7-1.3-2.7
	C458,470.9,457.9,469.9,457.9,468.8z M453.8,462.6c0,2.5,0.3,4.7,0.9,6.6c0.6,1.9,1.4,3.5,2.5,4.8s2.4,2.3,3.8,2.9
	c1.5,0.6,3.1,1,4.9,1c2,0,3.9-0.3,5.8-1c1.9-0.6,3.7-1.5,5.5-2.7c1.7-1.1,3.3-2.5,4.8-4c1.5-1.5,2.7-3.2,3.7-4.9
	c1.1-1.8,1.9-3.6,2.5-5.6c0.6-2,0.9-3.9,0.9-5.8c0-1.8-0.2-3.6-0.6-5.4c-0.4-1.9-1.1-3.5-2.1-5c-1-1.5-2.2-2.7-3.8-3.6
	c-1.6-1-3.5-1.4-5.8-1.4c-1.8,0-3.6,0.3-5.4,1c-1.8,0.6-3.6,1.5-5.3,2.6c-1.7,1.1-3.3,2.4-4.8,4c-1.5,1.5-2.8,3.2-3.9,5
	c-1.1,1.8-1.9,3.7-2.6,5.7S453.8,460.6,453.8,462.6z M506.2,441.8l9.2,36.1h0.4l13.5-38h5.5l0.2-0.7h-12.5l-0.2,0.7h6.1l-10.5,29.4
	h-0.1l-7.6-30.2h-10.1l-0.2,0.7h6.1l-13,36.6h-5.5l-0.2,0.7h12.4l0.2-0.7h-6.1l12.4-34.6H506.2z M559.8,443.9l-9.1,32.6h-5.1
	l-0.2,0.7h14.6l0.2-0.7h-5.7l10.3-36.9H564c-0.8,0.8-1.8,1.7-3,2.5c-1.2,0.9-2.4,1.7-3.7,2.5c-1.3,0.7-2.5,1.4-3.7,2
	c-1.2,0.6-2.2,1.1-2.9,1.4l0.4,0.6c0.5-0.2,1.2-0.5,1.9-0.9c0.7-0.4,1.5-0.7,2.3-1.2c0.8-0.5,1.6-0.9,2.4-1.4
	C558.3,444.7,559.1,444.3,559.8,443.9z M576.1,456.6c0-1.4,0.2-3,0.5-4.9c0.4-1.9,0.9-3.7,1.7-5.3c0.7-1.7,1.7-3.1,2.8-4.3
	c1.2-1.2,2.6-1.8,4.2-1.8c1.8,0,3.1,0.4,3.8,1.3c0.8,0.9,1.1,2.1,1.1,3.7c0,1.3-0.1,2.5-0.4,3.8c-0.2,1.2-0.5,2.5-0.9,3.7
	c-0.4,1.2-0.7,2.4-1.2,3.6c-0.4,1.2-0.8,2.4-1.1,3.5c-0.7,0.7-1.6,1.3-2.6,1.9c-1,0.6-2.1,0.9-3.4,0.9c-1.7,0-2.9-0.5-3.6-1.6
	C576.4,460,576.1,458.5,576.1,456.6z M586.2,461.5l-1,2.8c-0.8,2.4-1.6,4.3-2.3,5.9c-0.7,1.6-1.5,2.9-2.2,3.9
	c-0.7,1-1.6,1.7-2.5,2.1c-0.9,0.4-1.9,0.6-3,0.6c-0.7,0-1.5-0.1-2.2-0.3c-0.7-0.2-1-0.6-1-1.4c0-0.2,0-0.4,0-0.6
	c0-0.1,0.1-0.3,0.1-0.4c0-0.1,0.1-0.2,0.1-0.4c0-0.1,0.1-0.3,0.1-0.5c0-0.4-0.2-0.8-0.6-1.1c-0.4-0.4-0.9-0.5-1.6-0.5
	c-0.7,0-1.3,0.2-1.7,0.5c-0.4,0.3-0.6,0.9-0.6,1.7c0,0.5,0.1,0.9,0.3,1.4c0.2,0.5,0.6,0.9,1.1,1.3c0.5,0.4,1.2,0.7,2,0.9
	c0.8,0.2,1.8,0.4,3,0.4c1.6,0,3.2-0.4,4.8-1.3c1.6-0.9,3.1-2,4.5-3.5c1.5-1.5,2.8-3.2,4-5.1c1.2-1.9,2.3-3.9,3.2-6
	c0.9-2.1,1.6-4.3,2.1-6.5c0.5-2.2,0.8-4.4,0.8-6.4c0-1.2-0.2-2.4-0.5-3.6c-0.3-1.1-0.8-2.2-1.4-3c-0.6-0.9-1.5-1.6-2.5-2.1
	c-1-0.5-2.3-0.8-3.7-0.8c-1.7,0-3.3,0.4-4.9,1.3c-1.6,0.9-3,2-4.2,3.4c-1.2,1.4-2.1,3-2.9,4.7c-0.7,1.7-1.1,3.4-1.1,5.1
	c0,1.3,0.2,2.5,0.6,3.7c0.4,1.1,0.9,2.1,1.7,2.9c0.7,0.8,1.6,1.5,2.5,2c1,0.5,2.1,0.7,3.3,0.7c1.4,0,2.5-0.2,3.4-0.6
	c0.9-0.4,1.7-0.9,2.3-1.4L586.2,461.5z"/>
</svg>
